<svg width="57" height="58" viewBox="0 0 57 58" fill="none" xmlns="http://www.w3.org/2000/svg">
<path d="M57 29C57 45.0163 44.2401 58 28.5 58C12.7599 58 0 45.0163 0 29C0 12.9837 12.7599 0 28.5 0C44.2401 0 57 12.9837 57 29Z" fill="#323238"/>
<path d="M57 29C57 45.0163 44.2401 58 28.5 58C12.7599 58 0 45.0163 0 29C0 12.9837 12.7599 0 28.5 0C44.2401 0 57 12.9837 57 29Z" fill="#323238"/>
<path d="M57 29C57 45.0163 44.2401 58 28.5 58C12.7599 58 0 45.0163 0 29C0 12.9837 12.7599 0 28.5 0C44.2401 0 57 12.9837 57 29Z" stroke="url(#paint0_linear_61385:216)"/>
<g clip-path="url(#clip0_61385:216)">
<path d="M27.724 41C26.617 41 25.324 40.994 24.048 40.921C22.1811 40.963 20.3729 40.267 19.016 38.984C17.7328 37.6276 17.0367 35.8197 17.079 33.953C17 32.51 17 31.051 17 29.64C17 29.4267 17 29.2133 17 29C17 28.7867 17 28.5733 17 28.36C17 26.949 17 25.49 17.079 24.048C17.037 22.1811 17.733 20.3729 19.016 19.016C20.3729 17.733 22.1811 17.037 24.048 17.079C25.328 17.006 26.617 17 27.724 17H30.277C31.384 17 32.677 17.006 33.954 17.079C35.8207 17.0367 37.6286 17.7328 38.985 19.016C40.268 20.3729 40.964 22.1811 40.922 24.048C41 25.49 41 26.949 41 28.361C41 28.5743 41 28.7877 41 29.001C41 29.2143 41 29.4273 41 29.64C41 31.051 41 32.51 40.921 33.954C40.9633 35.8207 40.2672 37.6286 38.984 38.985C37.6276 40.2682 35.8197 40.9643 33.953 40.922C32.672 40.995 31.383 41.001 30.276 41.001L27.724 41Z" fill="white"/>
<path d="M34.6061 23.7886C34.8426 23.9466 35.1206 24.031 35.405 24.031L35.406 24.032C35.7873 24.0314 36.1528 23.8796 36.4223 23.6098C36.6917 23.34 36.843 22.9743 36.843 22.593C36.843 22.3086 36.7587 22.0305 36.6007 21.7941C36.4427 21.5576 36.2181 21.3733 35.9553 21.2644C35.6926 21.1556 35.4034 21.1271 35.1245 21.1826C34.8456 21.2381 34.5893 21.375 34.3882 21.5761C34.1871 21.7773 34.0502 22.0335 33.9947 22.3124C33.9392 22.5914 33.9677 22.8805 34.0765 23.1433C34.1853 23.406 34.3697 23.6306 34.6061 23.7886Z" fill="#323238"/>
<path fill-rule="evenodd" clip-rule="evenodd" d="M29.0003 35.1557C27.7828 35.1555 26.5927 34.7943 25.5805 34.1177C24.5683 33.4412 23.7794 32.4797 23.3137 31.3548C22.8479 30.2299 22.7261 28.9922 22.9637 27.7981C23.2014 26.604 23.7878 25.5072 24.6487 24.6464C25.5097 23.7856 26.6066 23.1994 27.8007 22.9619C28.9949 22.7245 30.2326 22.8464 31.3574 23.3124C32.4822 23.7783 33.4436 24.5674 34.1199 25.5797C34.7963 26.592 35.1573 27.7822 35.1573 28.9997C35.1558 30.6321 34.5066 32.1973 33.3522 33.3516C32.1979 34.5059 30.6328 35.1541 29.0003 35.1557ZM29.0003 25.0002C28.2092 25.0002 27.4358 25.2348 26.778 25.6743C26.1202 26.1139 25.6075 26.7386 25.3048 27.4695C25.002 28.2004 24.9228 29.0047 25.0771 29.7806C25.2315 30.5565 25.6124 31.2692 26.1719 31.8286C26.7313 32.3881 27.444 32.769 28.2199 32.9234C28.9958 33.0777 29.8001 32.9985 30.531 32.6957C31.2619 32.393 31.8866 31.8803 32.3262 31.2225C32.7657 30.5647 33.0003 29.7913 33.0003 29.0002C33.0003 27.9393 32.5789 26.9219 31.8287 26.1718C31.0786 25.4216 30.0612 25.0002 29.0003 25.0002Z" fill="#323238"/>
</g>
<defs>
<linearGradient id="paint0_linear_61385:216" x1="-1.16625e-06" y1="1.37579" x2="66.9797" y2="18.1493" gradientUnits="userSpaceOnUse">
<stop stop-color="#FF008E"/>
<stop offset="1" stop-color="#FFCD1E"/>
</linearGradient>
<clipPath id="clip0_61385:216">
<rect width="24" height="24" fill="white" transform="translate(17 17)"/>
</clipPath>
</defs>
</svg>
