<svg width="57" height="58" viewBox="0 0 57 58" fill="none" xmlns="http://www.w3.org/2000/svg">
<path d="M57 29C57 45.0163 44.2401 58 28.5 58C12.7599 58 0 45.0163 0 29C0 12.9837 12.7599 0 28.5 0C44.2401 0 57 12.9837 57 29Z" fill="#323238"/>
<path d="M57 29C57 45.0163 44.2401 58 28.5 58C12.7599 58 0 45.0163 0 29C0 12.9837 12.7599 0 28.5 0C44.2401 0 57 12.9837 57 29Z" fill="#323238"/>
<path d="M57 29C57 45.0163 44.2401 58 28.5 58C12.7599 58 0 45.0163 0 29C0 12.9837 12.7599 0 28.5 0C44.2401 0 57 12.9837 57 29Z" stroke="url(#paint0_linear_61385:205)"/>
<g clip-path="url(#clip0_61385:205)">
<path d="M41.6849 21.2742C40.7603 21.6648 39.7804 21.9224 38.7769 22.0387C39.8352 21.4332 40.627 20.4806 41.0048 19.3584C40.0115 19.9254 38.9234 20.3245 37.7882 20.5381C37.0948 19.8266 36.1931 19.3314 35.2007 19.1171C34.2084 18.9027 33.1715 18.9793 32.2254 19.3367C31.2792 19.6941 30.4677 20.3157 29.8968 21.1206C29.3259 21.9254 29.022 22.876 29.0248 23.8484C29.0229 24.2205 29.0668 24.5915 29.1556 24.9538C27.1396 24.8583 25.1674 24.3575 23.3677 23.484C21.5679 22.6105 19.9812 21.384 18.7111 19.8845C18.0631 20.952 17.8653 22.2155 18.1579 23.4175C18.4505 24.6195 19.2116 25.6697 20.2861 26.3541C19.4786 26.3351 18.6882 26.1273 17.9841 25.7489V25.8091C17.9836 26.9284 18.3885 28.0134 19.1302 28.8796C19.8718 29.7459 20.9043 30.34 22.0523 30.561C21.6174 30.6738 21.1687 30.7309 20.7181 30.7309C20.3985 30.7315 20.0797 30.7015 19.7664 30.6413C20.09 31.6039 20.7204 32.4458 21.5694 33.0491C22.4184 33.6524 23.4434 33.9869 24.5012 34.0058C22.7065 35.3541 20.489 36.0852 18.2063 36.081C17.8024 36.0805 17.3989 36.0573 16.9979 36.0114C19.3045 37.4459 21.9986 38.2068 24.7505 38.2009C26.6488 38.2136 28.5308 37.8656 30.2871 37.177C32.0434 36.4883 33.639 35.4729 34.9811 34.1897C36.3232 32.9065 37.385 31.3811 38.1049 29.7022C38.8248 28.0233 39.1883 26.2243 39.1743 24.41C39.1743 24.2 39.1743 23.99 39.1583 23.7847C40.1498 23.0979 41.0053 22.2478 41.6849 21.2742V21.2742Z" fill="white"/>
</g>
<defs>
<linearGradient id="paint0_linear_61385:205" x1="-1.16625e-06" y1="1.37579" x2="66.9797" y2="18.1493" gradientUnits="userSpaceOnUse">
<stop stop-color="#FF008E"/>
<stop offset="1" stop-color="#FFCD1E"/>
</linearGradient>
<clipPath id="clip0_61385:205">
<rect width="24.6857" height="19.2" fill="white" transform="translate(17 19)"/>
</clipPath>
</defs>
</svg>
